<svg width="110" height="110" viewBox="0 0 110 110" fill="none" xmlns="http://www.w3.org/2000/svg">
<path fill-rule="evenodd" clip-rule="evenodd" d="M3.07881 9.81716C3.69019 10.9259 11.1996 20.5885 12.8769 22.9008C13.5866 23.8792 13.8533 23.6668 15.1782 24.0084C20.7999 25.4578 18.7598 24.2488 23.4012 28.8792C26.6328 32.1031 56.0374 61.3006 56.3393 61.9557C54.4898 64.5055 50.5457 66.2863 51.9393 68.8224C52.2003 69.2974 54.3333 71.4442 54.9944 71.6665C57.1034 72.3757 57.7187 70.3955 58.8889 69.8634L60.8889 71.9407C60.3162 73.7245 59.8368 74.372 60.1926 76.4388C60.4711 78.056 61.1677 79.1899 62.0507 80.0771L89.2361 107.25C90.1065 108.125 90.8263 108.919 92.4663 109.455C97.2788 111.028 100.021 107.21 102.938 104.297C103.86 103.376 104.674 102.575 105.595 101.65C106.449 100.792 107.331 100.097 107.988 98.5926C109.47 95.2008 107.929 92.3427 106.089 90.5472C102.389 86.9371 98.847 83.3097 95.1927 79.6423C91.5285 75.9649 87.9375 72.433 84.2881 68.7461C82.472 66.9113 80.7036 65.0685 78.8376 63.2974C77.991 62.494 76.7473 61.7172 75.2099 61.4445C74.4037 61.3015 73.5831 61.3024 72.7758 61.4501C71.9438 61.6025 71.3118 62.0077 70.5771 62.1071C70.0342 61.4708 69.028 60.7407 68.6408 60.0411C69.2178 59.0048 71.147 58.2325 70.3753 56.1625C70.1218 55.4826 68.008 53.4312 67.4682 53.1637C65.6577 52.2664 64.3361 54.0073 63.6498 54.7104C63.0819 55.2924 61.1845 57.3667 60.5854 57.5903C59.7032 57.0179 28.2339 25.305 24.4158 21.5325C23.0239 20.1574 23.1394 15.2736 21.8022 14.2732C21.1443 13.7811 20.7233 13.476 19.9545 12.8851L8.58205 4.35507C8.08563 4.56136 3.30191 9.3704 3.07881 9.81716ZM29.9404 94.7996L24.7747 100.09C24.1165 100.811 24.3289 100.778 23.026 100.791C21.3263 100.807 15.9017 101.155 15.2059 100.7L9.90693 95.5358C9.25308 94.874 9.20995 95.0504 9.20484 93.7757C9.19763 92.0084 8.8222 86.6993 9.31915 85.9689C9.50568 85.6947 10.2411 85.0357 10.5763 84.7166L14.4736 80.6589C15.1669 79.9577 15.0167 79.985 16.2363 79.9748C17.9241 79.9608 23.3452 79.6203 23.9802 80.1399L29.1962 85.3824C30.3553 86.5534 30.0105 86.6995 30.0538 89.6453C30.0674 90.5759 30.2988 94.3636 29.9404 94.7996ZM26.2764 71.8133C24.941 71.7712 23.5679 70.7819 19.4837 70.7819C8.67748 70.7819 0.00380274 79.6943 1.25616e-06 90.3815C-0.00380023 101.16 8.62112 109.978 19.7783 110C30.3551 110.021 39.217 101.309 39.2271 90.2344C39.23 87.3406 38.5929 86.2736 38.1673 83.9011C38.6477 83.0859 40.5575 81.4542 41.305 80.677C43.3784 78.521 45.8159 76.2938 47.7054 74.2618C48.4038 73.5108 50.4879 71.6907 50.9024 70.9401C50.201 69.789 47.7976 68.5539 49.3367 66.1891C50.1868 64.883 52.0134 63.7321 52.7869 62.545C52.4698 61.8959 49.3498 58.9815 48.5842 58.1949C47.826 57.4158 44.9031 54.327 44.2332 53.9621L26.2764 71.8133ZM52.7098 45.46C52.8383 45.7156 60.3047 53.4299 61.2942 54.1016C62.173 53.258 64.0132 51.168 64.9611 50.5772C67.4241 49.0423 68.6527 51.6643 69.7192 52.1938C71.1883 51.0743 82.7458 38.8887 83.2726 38.8174C83.3864 38.802 94.773 43.0364 103.973 33.7548C107.752 29.9422 110.093 24.8698 109.997 18.9485C109.974 17.5308 109.614 13.9794 108.906 13.1011L97.1202 24.8371C96.2785 25.6749 95.4588 26.3501 93.7344 25.8529C92.0705 25.3731 89.695 22.5699 88.5732 21.4551C86.1379 19.0355 82.0059 16.0249 85.1044 12.9729C86.9814 11.124 96.7053 1.5497 96.9511 1.01309C83.1886 -3.29509 71.3954 6.80026 70.2764 18.7671C70.1196 20.4432 70.1736 22.4915 70.5304 24.0234C70.7071 24.7815 70.8905 25.5269 71.0844 26.2805C71.3114 27.1634 70.5375 27.56 70.0875 28.0084C68.7002 29.3906 53.2247 44.6998 52.7098 45.46Z" fill="#000"/>
</svg>
