<svg width="110" height="110" viewBox="0 0 110 110" fill="none" xmlns="http://www.w3.org/2000/svg">
<path fill-rule="evenodd" clip-rule="evenodd" d="M7.14126 51.0875C7.14126 41.0174 10.4921 29.628 17.1662 22.6596C19.8127 19.8962 20.674 18.1078 25.3663 14.9292C48.1015 -0.471321 78.0666 8.12711 88.8898 30.8636C95.5912 44.9411 94.9342 58.5293 87.5322 72.1511C81.1902 83.8221 66.3694 93.3857 53.2848 93.3857C39.5939 93.3857 31.6639 91.1912 21.3711 82.4518L16.8548 77.6295C15.8632 76.4079 15.6223 76.1832 14.7124 74.8279C10.2626 68.1994 7.14126 60.1176 7.14126 51.0875ZM35.1569 58.778V62.074C35.1569 70.8341 47.744 77.3578 55.3695 69.6521C67.2121 57.685 50.313 41.4961 39.3231 51.4083C37.5397 53.017 35.1569 56.2229 35.1569 58.778ZM15.3811 64.8207H32.4102C32.4102 59.3836 32.0837 55.0095 36.2929 50.5754C45.8397 40.5179 62.6234 46.5939 62.6234 61.5247C62.6234 63.8876 61.9827 64.5024 61.5246 66.4686C64.6779 66.4686 70.6743 66.807 73.4857 66.3445C83.6041 64.6798 81.3004 61.2508 81.3004 49.4394C81.3004 43.0262 50.1283 37.5861 41.9685 36.0359C38.3782 35.3538 31.8255 30.0018 24.1763 26.911C22.7701 26.3428 21.636 25.9627 20.325 25.269C16.4789 31.0127 13.2247 35.0732 11.9113 43.223C11.0886 48.3262 11.0636 64.8207 15.3811 64.8207ZM0 46.1436C0 59.9135 0.715823 66.8803 8.78654 79.1059C12.6719 84.9914 19.8811 91.5384 26.544 94.8574C55.6173 109.34 74.5018 93.3591 79.1031 92.2871L97.0999 109.997L110 97.3655L92.1558 79.2343C93.2815 75.2499 104.451 61.8051 99.652 39.3279C95.1099 18.056 74.0927 2.90125e-05 54.3834 2.90125e-05C43.5886 2.90125e-05 37.9529 -0.0574252 28.013 4.94119C22.4583 7.73456 18.9034 10.3143 14.6087 14.6088C7.06262 22.1549 0 34.9299 0 46.1436Z" fill="#000"/>
</svg>
